<?xml version="1.0" encoding="UTF-8"?>
<!DOCTYPE svg PUBLIC "-//W3C//DTD SVG 1.1//EN" "http://www.w3.org/Graphics/SVG/1.1/DTD/svg11.dtd">
<svg xmlns="http://www.w3.org/2000/svg" version="1.1" width="300px" height="146px" style="shape-rendering:geometricPrecision; text-rendering:geometricPrecision; image-rendering:optimizeQuality; fill-rule:evenodd; clip-rule:evenodd" xmlns:xlink="http://www.w3.org/1999/xlink">
<g><path style="opacity:1" fill="#e94436" d="M 101.5,-0.5 C 105.833,-0.5 110.167,-0.5 114.5,-0.5C 131.202,7.09723 136.035,19.4306 129,36.5C 125.466,40.3689 121.633,43.8689 117.5,47C 102.997,55.3634 88.6634,63.8634 74.5,72.5C 61.5161,66.372 48.8494,59.5386 36.5,52C 30.4246,49.3974 24.0913,48.2307 17.5,48.5C 45.2042,31.6483 73.2042,15.315 101.5,-0.5 Z"/></g>
<g><path style="opacity:0.995" fill="#119d58" d="M 184.5,-0.5 C 188.833,-0.5 193.167,-0.5 197.5,-0.5C 228.235,16.706 258.901,34.206 289.5,52C 293.866,55.5119 297.199,59.6786 299.5,64.5C 299.5,69.5 299.5,74.5 299.5,79.5C 297.963,82.9 296.13,86.2333 294,89.5C 290.555,92.4723 286.722,94.8057 282.5,96.5C 277.07,96.839 271.736,96.339 266.5,95C 252.926,87.2427 239.259,79.7427 225.5,72.5C 207.823,62.2392 190.323,51.5726 173,40.5C 162.134,22.6484 165.967,8.98178 184.5,-0.5 Z"/></g>
<g><path style="opacity:1" fill="#4385f3" d="M 17.5,48.5 C 24.0913,48.2307 30.4246,49.3974 36.5,52C 48.8494,59.5386 61.5161,66.372 74.5,72.5C 89.6044,81.8923 104.938,91.059 120.5,100C 131.96,108.331 135.127,119.164 130,132.5C 126.157,138.518 120.99,142.851 114.5,145.5C 110.167,145.5 105.833,145.5 101.5,145.5C 70.7653,128.294 40.0986,110.794 9.5,93C 4.73071,89.4205 1.39738,84.9205 -0.5,79.5C -0.5,75.1667 -0.5,70.8333 -0.5,66.5C 2.43279,57.5671 8.43279,51.5671 17.5,48.5 Z"/></g>
<g><path style="opacity:0.994" fill="#f9bc04" d="M 225.5,72.5 C 239.259,79.7427 252.926,87.2427 266.5,95C 271.736,96.339 277.07,96.839 282.5,96.5C 254.405,113.265 226.072,129.599 197.5,145.5C 193.167,145.5 188.833,145.5 184.5,145.5C 178.202,142.983 173.535,139.15 170.5,134C 169.9,132.324 168.567,130.657 166.5,129C 164.505,115.323 169.505,104.99 181.5,98C 196.358,89.7408 211.024,81.2408 225.5,72.5 Z"/></g>
</svg>
